<?xml version="1.0" encoding="utf-8"?>
<!-- Generator: Adobe Illustrator 19.0.0, SVG Export Plug-In . SVG Version: 6.00 Build 0)  -->
<svg version="1.1" id="Layer_5" xmlns="http://www.w3.org/2000/svg" xmlns:xlink="http://www.w3.org/1999/xlink" x="0px" y="0px"
	 viewBox="0 0 24 24" style="enable-background:new 0 0 24 24;" xml:space="preserve">
<path d="M21,5v13h-2V7.84l-1,1l-1-1V18h-2V5h2v0l0,0l1,1l1-1l0,0H21z"/>
<path d="M11.72,12.56L13.99,18h-2.17L9.2,11.71l-0.18-0.43l1.46-0.43l0.19-0.08C11.09,10.56,12,9.95,12,9c0-1.1-1.25-1.96-2.35-1.96
	c-0.22,0-0.43-0.02-0.62,0.05V5.04C9.23,5.01,9.43,5,9.64,5C11.85,5,14,6.79,14,9C14,10.54,13.05,11.88,11.72,12.56z"/>
<path d="M-7,13 M8,18H6V7.38L3,8.4V6.7L7.7,5H8V18z"/>
</svg>
