<?xml version="1.0" encoding="utf-8"?>
<!-- Generator: Adobe Illustrator 19.0.0, SVG Export Plug-In . SVG Version: 6.00 Build 0)  -->
<svg version="1.1" id="Layer_1" xmlns="http://www.w3.org/2000/svg" xmlns:xlink="http://www.w3.org/1999/xlink" x="0px" y="0px"
	 viewBox="0 0 496.85 401.36" style="enable-background:new 0 0 496.85 401.36;" xml:space="preserve">
<g id="XMLID_2_">
	<polygon id="XMLID_23_" style="fill:#DBDFF0;" points="137.54,282.05 137.54,293.81 137.54,401.36 147.15,401.36 147.15,293.81 
		447.91,293.81 447.91,401.36 457.52,401.36 457.52,293.81 457.52,282.05 	"/>
	<path id="XMLID_22_" style="fill:#EFA986;" d="M239.56,207.92c0,0-20.24-0.49-27.39-1.72c-7.16-1.23-46-3.68-64.4,0
		c-18.4,3.68-58.07,13.49-65.22,14.93c-7.16,1.43-21.47-0.82-26.17,14.11s-3.48,20.04-3.68,31.49c-0.2,11.45,0,96.5-1.84,104.48
		c0,0,12.47,5.32,21.88,0c0,0,0.41-28.42,7.36-46.21c6.95-17.79,6.75-42.12,5.52-53.57c-1.23-11.45,30.26-5.72,61.34-10.43
		c31.08-4.7,43.75,10.84,67.27,8.79c23.51-2.05,36.6-13.49,36.6-13.49L239.56,207.92z"/>
	<path id="XMLID_21_" style="fill:#304664;" d="M250.81,256.29c0,0-13.08,11.45-36.6,13.49c-23.51,2.05-35.99-7.05-67.06-2.35
		c-18.89,2.86-36.8,5.42-48.25,9.71c-0.99-17.66-13.74-56.01-13.97-56.54c11.12-2.48,45.94-11.03,62.84-14.41
		c18.4-3.68,57.25-1.23,64.4,0c7.16,1.23,27.39,1.72,27.39,1.72L250.81,256.29z"/>
	<path id="XMLID_20_" style="fill:#DBDFF0;" d="M50.99,370.37c0,0-8.12,5.94-16.3,9.31c-8.18,3.37-32.2,4.7-34.45,13.49
		c-2.25,8.79,11.65,8.18,16.97,8.18c5.32,0,43.86-1.84,49.58-1.23c5.72,0.61,13.09-7.26,5.93-28.93c0,0-7.57,0.6-11.14-0.83
		C58,368.95,53.71,368.5,50.99,370.37z"/>
	<g id="XMLID_18_">
		<path id="XMLID_19_" style="fill:#EFA986;" d="M447.96,216.81c0,0-11.66-6.73-13.59-3.61c-1.6,2.57-13.05-3.44-14.93-4.24
			c-1.88-0.8-3.41,4.64-4.67,5.77c-1.26,1.13-16.39,4.15-16.97,8.65c-0.58,4.5,5.91,25.04,11.51,30.75
			c5.6,5.7,31.48,10.99,42.56,7.61C462.95,258.36,468.32,228.68,447.96,216.81z"/>
	</g>
	<g id="XMLID_16_">
		<path id="XMLID_17_" style="fill:#EFA986;" d="M431.95,260.99c-19.63-3.77-37.92-2.87-37.92-2.87s-13.65-28.4-8.47-26.51
			c2.77,1.01,4.83,0.61,10.12,0.88c0.13,0.01,0.25,0.01,0.38,0.02c1.2,0.06,2.34,0.1,3.37,0.14h0.01c0.51,0.01,0.99,0.03,1.44,0.04
			c1.95,0.05,3.22,0.07,3.22,0.07S451.58,264.77,431.95,260.99z"/>
	</g>
	<g id="XMLID_14_">
		<path id="XMLID_15_" style="fill:#764937;" d="M445.57,215.4c0,0,12.84-6.09,21.98,6.02c9.15,12.11-8.13,33.47-8.83,35.92
			c-0.7,2.44-2.67,17.9-27.04,10.32c-24.37-7.58-19.61-9.22-19.61-9.22s11.63-2.27,12.79-6.68c1.26-4.78,2.57-12.7,2.57-12.7
			s10.97,4.49,12.73-1.99C441.92,230.59,447.84,222.07,445.57,215.4z"/>
	</g>
	<g id="XMLID_12_">
		<path id="XMLID_13_" style="fill:#EFA986;" d="M433.58,246.2c1.5,0.62,6.46,1.78,2.46,7.28c-4,5.5-14.53-3.07-14.66-4.05
			C421.25,248.44,420.92,240.98,433.58,246.2z"/>
	</g>
	<path id="XMLID_11_" style="fill:#E8734D;" d="M396.98,258.04c0,0-5.09-0.12-14.19,3.76c-9.1,3.89-23.26,8.08-51.48,8.08
		c-28.21,0-32.97-8.1-53.01-9.92c-20.03-1.82-27.5,1.84-27.5,1.84l-11.55-55.41c0,0,3.37,0,23.82-1.33
		c20.44-1.33,25.35-3.37,35.07-4.7c9.71-1.33,19.02,2.04,27.3,1.84c4.15-0.1,6.74-0.88,10.16-1.06c1.65-0.09,3.49-0.05,5.8,0.28
		c2.44,0.34,5.4,0.99,9.19,2.11c14.82,4.4,24.02,19.63,29.03,22.9c5.01,3.27,10.73,2.54,10.73,2.54L396.98,258.04z"/>
	<path id="XMLID_10_" style="fill:#EFA986;" d="M375.94,252.71c0,0,11.35-7.97,6.75-26.07c-4.6-18.09-10.58-33.89-10.73-42.63
		c-0.15-8.74,2.3-46.77,0-57.5c-2.3-10.73-6.13-54.59-6.59-60.42l-13.19-1.07c0,0-8.13,51.83-7.82,61.34
		c0.31,9.51,1.38,28.52,0.61,42.78c-0.77,14.26-5.21,57.97-4.29,68.09C341.59,247.35,348.95,267.89,375.94,252.71z"/>
	<path id="XMLID_9_" style="fill:#E8734D;" d="M375.94,252.71c-26.99,15.18-34.35-5.37-35.27-15.49
		c-0.63-6.85,0.04-29.09,1.53-47.17h33.63c1.76,9.1,3.17,22.11,6.85,36.59C387.29,244.74,375.94,252.71,375.94,252.71z"/>
	<circle id="XMLID_8_" style="fill:#4E4E50;" cx="357.54" cy="43.55" r="43.55"/>
	<circle id="XMLID_7_" style="fill:#E8734D;" cx="357.54" cy="43.55" r="22.7"/>
	<rect id="XMLID_6_" x="133.35" y="269.89" style="fill:#527AAD;" width="349.42" height="17.38"/>
	<polygon id="XMLID_5_" style="fill:#527AAD;" points="496.85,130.65 490.33,130.65 490.33,143.07 475.21,143.07 475.21,130.65 
		468.69,130.65 468.69,151.81 476.95,151.81 476.95,401.36 488.6,401.36 488.6,151.81 496.85,151.81 	"/>
	<path id="XMLID_4_" style="fill:#A77861;" d="M403.36,243.83c-0.25-0.33-4.22-5.75-7.3-11.32c1.2,0.06,2.34,0.1,3.37,0.14h0.01
		C399.44,232.65,402.45,241.74,403.36,243.83z"/>
	<path id="XMLID_3_" style="fill:#B95C3D;" d="M340.58,235.84c0,0-4.37-14.49-4.98-34.69c1.65-0.09,3.49-0.05,5.8,0.28
		C341.4,201.43,338.97,224.03,340.58,235.84z"/>
</g>
</svg>
