<?xml version="1.0" encoding="utf-8"?>
<!-- Generator: Adobe Illustrator 19.0.0, SVG Export Plug-In . SVG Version: 6.00 Build 0)  -->
<svg version="1.1" id="Layer_1" xmlns="http://www.w3.org/2000/svg" xmlns:xlink="http://www.w3.org/1999/xlink" x="0px" y="0px"
	 viewBox="0 0 384.46 495.29" style="enable-background:new 0 0 384.46 495.29;" xml:space="preserve">
<g id="XMLID_37_">
	<path id="XMLID_35_" style="fill:#EA4748;" d="M207.79,192.77c0,0-8.62-1.82-11.62-1.37C193.17,191.85,204.78,199.52,207.79,192.77
		z"/>
	<path id="XMLID_34_" style="fill:#EFA986;" d="M207.79,192.77c0,0,4.34-3.43,5.83-5.83c1.49-2.4,10.21-28.65,11.81-32.42
		c1.6-3.77,3.95-16.43,6.1-21c2.23-4.74,18.44-38.94,19.59-49.92l14.63-2.47c0,0-8.52,53.94-9.78,59.43
		c-1.26,5.49-6.79,17.92-7.82,22.95c-1.03,5.03-6.86,23.21-9.37,26.98c-2.52,3.77-16.46,38.64-16.46,38.64
		S198.87,205.01,207.79,192.77z"/>
	<path id="XMLID_33_" style="fill:#335D80;" d="M347.73,10.6h-7.66c0.17,0.31,0.33,0.6,0.49,0.87C323.71,15.6,311,34.01,311,56.1
		c0,22.06,12.67,40.44,29.48,44.61c-0.27,0.51-0.42,0.89-0.42,0.89h7.66c20.29,0,36.73-20.37,36.73-45.5
		C384.46,30.97,368.02,10.6,347.73,10.6z"/>
	<ellipse id="XMLID_32_" style="fill:#4175A1;" cx="340.07" cy="56.1" rx="36.73" ry="45.5"/>
	<path id="XMLID_31_" style="fill:#335D80;" d="M336.43,0h-9.45c0.21,0.39,0.41,0.74,0.61,1.07c-20.78,5.09-36.45,27.79-36.45,55.03
		c0,27.19,15.62,49.87,36.35,55.01c-0.34,0.62-0.52,1.09-0.52,1.09h9.45c25.01,0,45.29-25.12,45.29-56.1
		C381.72,25.12,361.44,0,336.43,0z"/>
	<ellipse id="XMLID_30_" style="fill:#4175A1;" cx="326.98" cy="56.1" rx="45.29" ry="56.1"/>
	<path id="XMLID_29_" style="fill:#EFA986;" d="M213.73,322.87c0,0,5.49,2.06,11.09,3.89c5.6,1.83,18.41,12.46,23.21,15.32
		c4.8,2.86,28.46,11.43,31.21,19.55c2.74,8.12-0.57,18.98,0,22.86c0.57,3.89,1.26,18.98-0.57,27.89
		c-1.83,8.92-12.12,57.62-12.12,57.62s-6.17,1.49-18.4-0.69c0,0,3.66-28.46,1.37-40.58c-2.29-12.12,0.34-31.21,1.71-38.3
		c1.37-7.09,2.59-11.89-4.19-12.12c-6.78-0.23-32.39-2.52-47.36-11.89c-14.98-9.37-15.32-8.92-21.72-8.92
		c-6.4,0-24.01-52.24-24.01-52.24S197.27,308.69,213.73,322.87z"/>
	<path id="XMLID_28_" style="fill:#EFA986;" d="M177.95,357.5c0,0-7.09,1.14-8.46,3.43c-1.37,2.29-26.06,32.58-34.52,36.81
		c-8.46,4.23-16.46,15.89-23.02,18.64c-6.35,2.66-34.37,6.63-46.26,6.17c-11.89-0.46-34.07,2.86-34.07,2.86s-21.03,1.6-9.6-12.23
		c0,0,33.95-12.57,42.3-16.23c8.34-3.66,23.55-7.2,30.64-6.86c7.09,0.34,15.55-17.26,17.72-21.83c2.17-4.57,16.8-32.35,21.49-37.84
		c4.69-5.49,4.34-15.12,20.13-28.18C169.57,289.6,186.07,338.87,177.95,357.5z"/>
	<path id="XMLID_27_" style="fill:#EA4748;" d="M251.3,343.71L251.3,343.71c0,0-11.39-5.11-20.08,13.11
		c-4.38,9.19-0.86,19.69-0.86,19.69c-10.02-1.67-22.1-4.71-30.69-10.08c-14.98-9.37-15.32-8.92-21.72-8.92
		c-6.4,0-24.01-52.24-24.01-52.24s43.33,3.43,59.79,17.61c0,0,5.49,2.06,11.09,3.89C229.7,328.34,245.54,339.72,251.3,343.71z"/>
	<path id="XMLID_26_" style="fill:#EA4748;" d="M177.95,357.5c0,0-7.09,1.14-8.46,3.43c-0.8,1.33-9.49,12.14-18.28,21.78
		c0,0.01-0.01,0.01-0.01,0.01s-18,2.52-36.82-17.87c0,0,0,0,0-0.01c4.57-8.89,15.79-29.76,19.79-34.44
		c4.69-5.49,4.34-15.12,20.13-28.18C169.57,289.6,186.07,338.87,177.95,357.5z"/>
	<path id="XMLID_25_" style="fill:#EFA986;" d="M187.76,141.89c0,0,22.48-9.09,21.1,20.31c-1.38,29.4-7.14,32.51-21.69,28.4
		c-14.55-4.11-15.57-21.88-17.46-30.81C167.82,150.87,180.52,143.17,187.76,141.89z"/>
	<path id="XMLID_24_" style="fill:#173342;" d="M172.79,174.37c0,0-0.06-7.85,3.2-8.57c3.27-0.72,4.95,3.82,4.95,3.82l2.63-0.14
		c0,0-2.35-7.96,0.76-9.78c3.11-1.82,21.74-0.22,24.07-2.9c2.34-2.68-1.05-18.59-6.13-20.15c-5.08-1.56-18.96-4.73-27.78,3.12
		c0,0-7.67,0.15-7.97,6.39C166.21,152.39,170.13,170.12,172.79,174.37z"/>
	<path id="XMLID_23_" style="fill:#EFA986;" d="M179.69,162.46c-0.98-2.59-6.49-2.26-5.93,1.84c0.57,4.11,5.13,10.43,6.96,9.25
		C182.54,172.37,181.03,166.04,179.69,162.46z"/>
	<path id="XMLID_22_" style="fill:#EA4748;" d="M207.79,192.77c0,0,12.43,20.93,14.37,27.56c1.94,6.63,4.8,30.74,4.72,34.63
		c-0.23,11.2-7.77,27.66-9.55,33.95c-1.77,6.29-5.77,23.78-3.6,33.95c0,0-47.21-6.29-59.79-17.61c0,0,2.17-18.86,2.97-23.78
		c0.8-4.92-1.26-20.69-4.69-28.46c-3.43-7.77-5.94-26.86-7.32-36.92c-1.37-10.06,30.75-24.69,30.75-24.69L207.79,192.77z"/>
	<path id="XMLID_21_" style="fill:#EFA986;" d="M178.52,200.32c0,0-3.28-7.43-3.98-9.49c-0.7-2.06-2.33-21.97-5.02-33.68
		c-2.16-9.41,0.88-21.19-1.63-32.73c-2.51-11.55-8.12-47.21-8.8-55.1c0,0-6.17-1.03-14.52,0c0,0-2.74,41.84-2.17,49.5
		c0.57,7.66,4.46,26.18,3.77,33.38c-0.69,7.2-2.97,32.24-2.51,39.21c0.46,6.97-1.52,28.62,3.18,38.2
		C151.54,239.19,191.55,233.36,178.52,200.32z"/>
	<path id="XMLID_20_" style="fill:#EFA986;" d="M198.81,198.83c0,0-10.23,3.18-25.09-4.57c0,0-0.24-13.37-2.17-19.89
		c-1.92-6.52,26.24,15.03,26.24,15.03s0.05,1.03,0.16,2.44c0.07,0.96,0.17,2.1,0.29,3.22C198.38,196.5,198.58,197.9,198.81,198.83z"
		/>
	<path id="XMLID_19_" style="fill:#EFA986;" d="M251.11,83.6c0,0,0.63-5.2-0.29-6.86c-0.91-1.66-5.43-11.58-6.29-13.43
		c-0.56-1.22,0.86-12.52,4.86-12.29c4,0.23,19.32,6.17,19.32,6.17s2.13,10.94,0.76,13.68c-1.37,2.74-5.4,15.6-5.29,14.45
		C264.3,84.19,251.11,83.6,251.11,83.6z"/>
	<path id="XMLID_18_" style="fill:#EFA986;" d="M245.09,64.52c0,0-3.62-7.55-2.95-13.78c0.33-3.06-0.72-3.58,0.57-3.66
		c1.3-0.08,4.59-0.74,6.35,8.29c1.75,9.02,5.94,9.79,5.94,9.79L245.09,64.52z"/>
	<path id="XMLID_17_" style="fill:#EFA986;" d="M152.86,47.79c0,0-0.63-6.07,1.66-5.46c2.29,0.61,3.24,4.78,5.14,5.45
		c1.9,0.66,3.66,6.75,3.12,9.42c-0.53,2.67-3.88,11.64-3.64,13.9c0.24,2.27-14.52,0-14.52,0s-1.14-4.92-4.12-6.36
		c-2.97-1.45-3.7-4.9-4.46-7.26l19.73-0.44L152.86,47.79z"/>
	<rect id="XMLID_16_" x="102.16" y="51.66" style="fill:#4175A1;" width="214" height="7.27"/>
	<path id="XMLID_15_" style="fill:#E8734D;" d="M248.23,468.62c0,0,4.34,0.46,7.84,0c3.51-0.46,6.33-4.42,11.97-1.98
		c5.64,2.44,9.37,9.68,13.79,10.67c4.42,0.99,15.47,5.64,14.48,11.66c-0.99,6.02-13.18,8.46-24.54,4.12
		c-11.35-4.34-18.82-5.64-25.15-6.25c-6.32-0.61-2.29-9.83-0.91-12.95C247.07,470.75,248.23,468.62,248.23,468.62z"/>
	<path id="XMLID_14_" style="fill:#E8734D;" d="M22.02,413.17c0,0-0.97,5.66,0.97,6.4c1.94,0.74,10.4,4.63,10.97,6.17
		c0.57,1.54,8,18.06,10.52,18.8c2.52,0.74,14.4,1.83,13.49,7.66c-0.91,5.83-14.35,7.09-23.89,5.14
		c-9.55-1.94-19.83-16.46-22.01-17.72c-2.17-1.26-7.95-6.46-3.66-13.66C12.71,418.78,22.02,413.17,22.02,413.17z"/>
	<path id="XMLID_13_" style="fill:#EFA986;" d="M250.56,59.02c0.54,0.98,1.54,1.62,2.66,1.71c1.81,0.14,4.87,0.32,8.49,0.23
		c5.97-0.14,9.51-0.8,8.52-5.44c-0.99-4.65-3.18-3.82-5.32-4.96c-2.13-1.14-16.3-1.72-16.91,0.87
		C247.58,53.23,249.4,56.92,250.56,59.02z"/>
	<path id="XMLID_12_" style="fill:#EFA986;" d="M154.12,47.24c0,0,1.41,0.77,3.08,4.5c1.68,3.73,2.38,5.95,0.47,7.02
		c-1.9,1.07-12.88,0.99-16.77,0.53c-3.89-0.46-4.11-5.86-4.25-7.26c-0.26-2.57,1.36-4.17,4.1-4.78
		C143.5,46.64,152.98,46.69,154.12,47.24z"/>
	<path id="XMLID_11_" style="fill:#335D80;" d="M59.51,0h-9.45c0.21,0.39,0.41,0.74,0.61,1.07C29.89,6.17,14.22,28.87,14.22,56.1
		c0,27.19,15.62,49.87,36.35,55.01c-0.34,0.62-0.52,1.09-0.52,1.09h9.45c25.01,0,45.29-25.12,45.29-56.1
		C104.8,25.12,84.52,0,59.51,0z"/>
	<ellipse id="XMLID_10_" style="fill:#4175A1;" cx="50.06" cy="56.1" rx="45.29" ry="56.1"/>
	<path id="XMLID_9_" style="fill:#335D80;" d="M59.51,0h-9.45c0.21,0.39,0.41,0.74,0.61,1.07C29.89,6.17,14.22,28.87,14.22,56.1
		c0,27.19,15.62,49.87,36.35,55.01c-0.34,0.62-0.52,1.09-0.52,1.09h9.45c25.01,0,45.29-25.12,45.29-56.1
		C104.8,25.12,84.52,0,59.51,0z"/>
	<ellipse id="XMLID_8_" style="fill:#4175A1;" cx="50.06" cy="56.1" rx="45.29" ry="56.1"/>
	<path id="XMLID_7_" style="fill:#335D80;" d="M49.17,10.6H41.5c0.17,0.31,0.33,0.6,0.49,0.87C25.15,15.6,12.44,34.01,12.44,56.1
		c0,22.06,12.67,40.44,29.48,44.61c-0.28,0.51-0.42,0.89-0.42,0.89h7.66c20.29,0,36.73-20.37,36.73-45.5
		C85.9,30.97,69.45,10.6,49.17,10.6z"/>
	<ellipse id="XMLID_6_" style="fill:#4175A1;" cx="41.5" cy="56.1" rx="36.73" ry="45.5"/>
	<path id="XMLID_5_" style="fill:#335D80;" d="M49.17,10.6H41.5c0.17,0.31,0.33,0.6,0.49,0.87C25.15,15.6,12.44,34.01,12.44,56.1
		c0,22.06,12.67,40.44,29.48,44.61c-0.28,0.51-0.42,0.89-0.42,0.89h7.66c20.29,0,36.73-20.37,36.73-45.5
		C85.9,30.97,69.45,10.6,49.17,10.6z"/>
	<ellipse id="XMLID_4_" style="fill:#4175A1;" cx="41.5" cy="56.1" rx="36.73" ry="45.5"/>
	<path id="XMLID_3_" style="fill:#335D80;" d="M38.11,17.04h-6.58c0.14,0.27,0.29,0.52,0.42,0.75C17.49,21.34,6.58,37.14,6.58,56.1
		c0,18.93,10.88,34.72,25.31,38.29c-0.24,0.43-0.36,0.76-0.36,0.76h6.58c17.41,0,31.53-17.49,31.53-39.06
		C69.64,34.53,55.52,17.04,38.11,17.04z"/>
	<ellipse id="XMLID_2_" style="fill:#4175A1;" cx="31.53" cy="56.1" rx="31.53" ry="39.06"/>
	<path id="XMLID_36_" style="fill:#A77861;" d="M198.23,195.06c-9.75,0.37-16.89-7.19-17.11-7.42c8.54,5.49,16.82,4.21,16.82,4.21
		C198.02,192.81,198.11,193.94,198.23,195.06z"/>
</g>
</svg>
