<?xml version="1.0" encoding="utf-8"?>
<!-- Generator: Adobe Illustrator 19.0.0, SVG Export Plug-In . SVG Version: 6.00 Build 0)  -->
<svg version="1.1" id="Layer_1" xmlns="http://www.w3.org/2000/svg" xmlns:xlink="http://www.w3.org/1999/xlink" x="0px" y="0px"
	 viewBox="0 0 498.86 465.54" style="enable-background:new 0 0 498.86 465.54;" xml:space="preserve">
<g id="XMLID_34_">
	<g id="XMLID_35_">
		<circle id="XMLID_190_" style="fill:#645D7F;" cx="95.7" cy="277.77" r="91.49"/>
		<circle id="XMLID_189_" style="fill:#393762;" cx="103.68" cy="280.67" r="91.49"/>
		<circle id="XMLID_188_" style="fill:#645D7F;" cx="103.68" cy="280.67" r="36.31"/>
		<path id="XMLID_36_" style="fill:#EAA888;" d="M245.31,185.41c0,0-49.29,19.19-75.9,39.26c-26.61,20.07-14.39,38.39-10.03,49.29
			c4.36,10.91,37.08,84.19,37.08,84.19s-2.62,6.11-7.85,10.03c-5.23,3.93-25.3,12.21-27.48,16.14c-2.18,3.93,13.96,6.54,23.12,6.54
			s34.02-4.36,42.75-4.8c8.72-0.44,6.54-10.03,5.23-13.09c-1.31-3.05-7.85-17.01-9.16-24.43c-1.31-7.42-9.16-34.46-10.91-49.73
			c-1.74-15.27-11.34-40.13-11.34-40.13s32.71-15.7,61.5-23.12c28.79-7.42,63.25-39.26,63.68-40.57
			c0.44-1.31-9.16-13.52-27.48-14.39C280.21,179.74,254.03,179.74,245.31,185.41z"/>
		<path id="XMLID_37_" style="fill:#DA5955;" d="M196.46,358.14c0,0-2.62,6.11-7.85,10.03c-5.23,3.93-25.3,12.21-27.48,16.14
			c-2.18,3.93,13.96,6.54,23.12,6.54s34.02-4.36,42.75-4.8c8.72-0.44,6.54-10.03,5.23-13.09c-0.48-1.12-1.66-3.71-3.04-6.9h-18.66
			C205.45,354.59,196.46,358.14,196.46,358.14z"/>
		<path id="XMLID_38_" style="fill:#DA5955;" d="M166.79,99.04c0,0-10.03,8.29-9.6,12.21c0.44,3.93,13.96,52.78,15.7,62.38
			c1.74,9.6,23.55,15.27,34.9,15.27c11.34,0,15.7-1.74,29.23,0c13.52,1.74,52.78,10.47,52.78,10.47s65.43,20.5,85.06,15.7
			c19.63-4.8,27.04-29.23,18.76-53.65s-21.81-37.51-42.31-37.51c-20.5,0-33.15,16.14-50.6,7.85c-17.45-8.29-27.04-17.45-40.13-28.35
			c-13.09-10.91-34.02-24.86-47.98-25.74c-13.96-0.87-20.5-0.87-20.5-0.87S169.85,90.31,166.79,99.04z"/>
		<path id="XMLID_39_" style="fill:#F5BA99;" d="M148.04,1.77c0,0-18.32,1.74-25.74,20.07c-7.42,18.32-4.36,28.79-1.74,31.41
			c2.62,2.62,0,14.83,0,17.45c0,2.62,6.54,5.67,6.54,5.67s6.98,13.09,9.16,14.39c2.18,1.31,7.42-0.87,10.9-1.31
			c3.49-0.44,5.67-1.31,5.67-1.31l15.7,17.88c0,0,1.74,32.71,10.03,41.44c8.29,8.72,8.72,0.44,7.42-10.9
			c-1.31-11.34,3.05-34.02,4.8-42.31c1.74-8.29,4.8-17.01,4.8-17.01s-8.72-5.23-9.6-12.21c-0.87-6.98,0.87-16.14,3.93-20.5
			c3.05-4.36,0.44-22.68-6.11-35.77C177.26-4.34,154.58,0.89,148.04,1.77z"/>
		<path id="XMLID_40_" style="fill:#393762;" d="M203.87,7.44c-9.59-1.71-16.46,1.94-18.99,3.6c-0.35-0.78-0.7-1.54-1.08-2.29
			c-6.54-13.09-29.23-7.85-35.77-6.98c0,0-18.32,1.74-25.74,20.07c-0.61,1.51-1.12,2.94-1.6,4.34c3.85-2.74,10.98-6.5,20.36-5.65
			c14.39,1.31,5.67,18.32,10.9,21.37c5.23,3.05,1.74-7.85,12.65-5.67c10.91,2.18,8.72,13.96,4.8,15.7
			c-3.93,1.74-5.67,3.05-5.67,3.05s9.16,7.85,17.45,7.85c1.44,0,3-0.44,4.6-1.14c-0.06-4.19,0.64-8.72,1.87-12.38
			c0.42,0.56,0.88,1.01,1.39,1.31c7.42,4.36,20.94,1.74,22.68-5.23C213.47,38.41,216.09,9.62,203.87,7.44z"/>
		<path id="XMLID_41_" style="fill:#F5BA99;" d="M226.99,84.64c0,0-8.72-1.31-19.63,16.58c-10.91,17.88-3.93,42.31,13.96,51.91
			c17.88,9.6,51.04-16.14,51.47-24.43C273.23,120.41,267.99,99.47,226.99,84.64z"/>
		<g id="XMLID_42_">
			<path id="XMLID_43_" style="fill:#393762;" d="M364.26,364.59c-0.51,0-1.02-0.08-1.53-0.24l-257.42-81.6
				c-2.66-0.84-4.13-3.68-3.29-6.34c0.84-2.66,3.68-4.13,6.34-3.29l257.42,81.6c2.66,0.84,4.13,3.68,3.29,6.34
				C368.39,363.22,366.41,364.59,364.26,364.59z"/>
		</g>
		<path id="XMLID_44_" style="fill:#85B7E3;" d="M393.62,161.41c-6.67-19.67-16.75-31.97-31.13-36.02
			c0.26,9.21-0.35,22.99-5.08,34.28c-7.85,18.76-37.08,34.46-52.78,41.44c-1.25,0.56-2.37,1.08-3.53,1.6
			c19.6,5.6,59.22,15.91,73.76,12.35C394.49,210.27,401.91,185.84,393.62,161.41z"/>
		<path id="XMLID_45_" style="fill:#85B7E3;" d="M367.01,157.93c0,0-46.24,10.9-78.95,34.46c-18.41,13.25-36.88,40.92-29.43,64.5
			c5.08,16.08,8.35,32.69,11.83,49.23c5.47,26.03,10.72,52.11,15.85,78.2c0,0-13.96,6.98-20.94,12.21
			c-6.98,5.23-23.55,8.72-18.76,14.83c4.8,6.11,52.34,1.74,60.2,0.44c7.85-1.31,13.09-4.8,13.52-7.42c0.44-2.62-8.59-23.2-9.6-29.23
			c-0.87-5.23-6.98-21.81-7.85-67.61c-0.21-11.04,1.74-29.66-1.74-38.39c-3.49-8.72-6.54-16.14-6.54-16.14s65.87-24.43,85.06-38.39
			c19.19-13.96,20.94-36.64,13.96-50.16"/>
		<path id="XMLID_46_" style="fill:#ECB393;" d="M380.99,213.57c-2.38-7.46-7.04-16.28-16.16-24.67
			c-10.98-10.1-26.05-15.01-38.31-17.39c-12.68,5.32-26.48,12.24-38.46,20.88c-18.41,13.25-36.88,40.92-29.43,64.5
			c5.08,16.08,8.35,32.69,11.83,49.23c5.47,26.03,10.72,52.11,15.85,78.2c0,0-13.96,6.98-20.94,12.21
			c-6.98,5.23-23.55,8.72-18.76,14.83c4.8,6.11,52.34,1.74,60.2,0.44c7.85-1.31,13.09-4.8,13.52-7.42c0.44-2.62-8.59-23.2-9.6-29.23
			c-0.87-5.23-6.98-21.81-7.85-67.61c-0.21-11.04,1.74-29.66-1.74-38.39c-3.49-8.72-6.54-16.14-6.54-16.14s65.87-24.43,85.06-38.39
			C380.13,214.29,380.54,213.92,380.99,213.57z"/>
		<path id="XMLID_47_" style="fill:#F5BA99;" d="M306.81,411.79c7.85-1.31,13.09-4.8,13.52-7.42c0.44-2.62-8.59-23.2-9.6-29.23
			c-0.22-1.3-0.75-3.29-1.45-6.25c-2.94,0.8-6.1,1.36-9.45,1.45c-7.54,0.2-13.06-1.12-16.82-2.58c1.1,5.51,2.21,11.02,3.3,16.54
			c0,0-13.96,6.98-20.94,12.21c-6.98,5.23-23.55,8.72-18.76,14.83C251.42,417.46,298.96,413.1,306.81,411.79z"/>
		<path id="XMLID_48_" style="fill:#DA5955;" d="M298.53,386.06c-2.62-6.11-12.21-1.74-12.21-1.74s-13.96,6.98-20.94,12.21
			c-6.98,5.23-23.55,8.72-18.76,14.83c4.8,6.11,52.34,1.74,60.2,0.44c7.85-1.31,13.09-4.8,13.52-7.42
			c0.24-1.41-2.29-8.08-4.83-14.86c-3.82,1.92-8.09,3.52-11.75,3.52C294.6,393.04,301.14,392.16,298.53,386.06z"/>
		<path id="XMLID_49_" style="fill:#EAA888;" d="M160.35,292.8c1.34-3.56,5.35-4.01,5.35-4.01s0.12-0.16,0.25-0.44
			c-1.18-2.71-2.25-5.16-3.18-7.32c-4.26-3.93-8.73-5.27-9.99-7.38c-0.61-1.01-0.19-6.86,1.2-14.33
			c-2.58-9.28-2.23-20.53,10.99-32.54c6.79-15.59,10.33-36.23,10.74-44.39c0.06-1.14,0.13-2.48,0.22-3.64
			c-1.52-1.52-2.56-3.02-2.89-4.83c-1.6-8.8-12.65-53.07-15.27-64.29c-3.17,4.17-9.77,13.6-10.78,21.01
			c-1.34,9.8,1.34,24.5,2.67,32.97c1.34,8.46-1.34,34.3-4.01,42.77c-2.67,8.46-6.68,27.17-5.79,36.08
			c0.89,8.91-4.01,40.98-4.9,45.89c-0.89,4.9,1.78,8.91,6.68,12.47c4.9,3.56,12.47,9.36,16.48,8.46c4.01-0.89,5.35-7.57,5.35-8.91
			S159.02,296.37,160.35,292.8z"/>
		<g id="XMLID_50_">
			<circle id="XMLID_173_" style="fill:#645D7F;" cx="383.61" cy="356.18" r="106"/>
			<circle id="XMLID_172_" style="fill:#393762;" cx="392.87" cy="359.54" r="106"/>
			<circle id="XMLID_171_" style="fill:#645D7F;" cx="392.87" cy="359.54" r="42.06"/>
			<circle id="XMLID_51_" style="fill:#393762;" cx="392.87" cy="359.54" r="9.25"/>
		</g>
		<path id="XMLID_52_" style="fill:#F5BA99;" d="M213.47,101.66c0,0-12.21,4.8-10.03,27.92c2.18,23.12,14.39,37.51,18.32,51.04
			c3.93,13.52,0,31.84,10.47,49.29c10.47,17.45,23.99,74.59,23.99,76.77s-12.65,9.16-12.65,12.65c0,3.49-0.44,17.45,3.49,19.63
			c3.93,2.18,16.14,4.8,20.07,3.93c3.93-0.87,2.18-6.11,2.18-8.72s7.42-2.62,9.6-2.18c2.18,0.44,3.93-7.85,0.87-16.58
			c-3.05-8.72-12.21-75.03-14.83-89.42c-2.62-14.39-2.18-44.93-7.85-55.4c-5.67-10.47-12.21-23.55-12.65-31.41
			c-0.44-7.85-1.31-17.88-1.31-17.88"/>
	</g>
</g>
</svg>
