<?xml version="1.0" encoding="utf-8"?>
<!-- Generator: Adobe Illustrator 19.0.0, SVG Export Plug-In . SVG Version: 6.00 Build 0)  -->
<svg version="1.1" id="Layer_1" xmlns="http://www.w3.org/2000/svg" xmlns:xlink="http://www.w3.org/1999/xlink" x="0px" y="0px"
	 viewBox="0 0 500 493.79" style="enable-background:new 0 0 500 493.79;" xml:space="preserve">
<g id="XMLID_2_">
	<path id="XMLID_39_" style="fill:#335D80;" d="M452.23,13.79h-9.97c0.22,0.41,0.43,0.78,0.64,1.13
		c-21.92,5.37-38.44,29.32-38.44,58.04c0,28.68,16.48,52.6,38.34,58.02c-0.36,0.66-0.54,1.15-0.54,1.15h9.97
		c26.38,0,47.77-26.49,47.77-59.17C500,40.28,478.61,13.79,452.23,13.79z"/>
	<ellipse id="XMLID_38_" style="fill:#4175A1;" cx="442.26" cy="72.96" rx="47.77" ry="59.17"/>
	<path id="XMLID_37_" style="fill:#335D80;" d="M437.53,0h-12.29c0.27,0.5,0.53,0.96,0.79,1.39c-27.02,6.62-47.4,36.14-47.4,71.56
		c0,35.37,20.32,64.85,47.28,71.54c-0.44,0.81-0.67,1.42-0.67,1.42h12.29c32.53,0,58.9-32.67,58.9-72.96
		C496.43,32.67,470.06,0,437.53,0z"/>
	<ellipse id="XMLID_36_" style="fill:#4175A1;" cx="425.24" cy="72.96" rx="58.9" ry="72.96"/>
	<path id="XMLID_35_" style="fill:#EFA986;" d="M336.78,108.73c0,0,0.82-6.76-0.37-8.92c-1.19-2.15-7.06-15.06-8.18-17.47
		c-0.73-1.58,1.12-16.28,6.32-15.98c5.2,0.3,25.13,8.03,25.13,8.03s2.77,14.22,0.99,17.79c-1.78,3.57-7.03,20.28-6.88,18.8
		C353.93,109.48,336.78,108.73,336.78,108.73z"/>
	<path id="XMLID_34_" style="fill:#EFA986;" d="M328.95,83.9c0,0-4.71-9.82-3.84-17.92c0.42-3.97-0.94-4.66,0.74-4.76
		c1.68-0.1,5.97-0.96,8.25,10.78c2.28,11.74,7.73,12.74,7.73,12.74L328.95,83.9z"/>
	<path id="XMLID_33_" style="fill:#EFA986;" d="M148.36,67.08c0,0-0.82-7.89,2.16-7.1c2.97,0.79,4.21,6.22,6.69,7.09
		c2.48,0.87,4.76,8.78,4.06,12.25c-0.69,3.47-5.47,24.29-5.16,27.24c0.31,2.95-19.59-0.03-19.59-0.03s-0.35-15.52-4.22-17.41
		c-3.87-1.88-4.81-6.37-5.8-9.45l25.66-0.58L148.36,67.08z"/>
	<rect id="XMLID_32_" x="132.86" y="67.19" style="fill:#4175A1;" width="278.31" height="9.45"/>
	<path id="XMLID_31_" style="fill:#EFA986;" d="M336.06,76.76c0.71,1.28,2,2.11,3.46,2.23c2.36,0.19,6.34,0.41,11.04,0.3
		c7.77-0.18,12.37-1.03,11.08-7.08c-1.29-6.05-4.14-4.96-6.92-6.45c-2.78-1.49-21.19-2.23-21.99,1.14
		C332.18,69.23,334.55,74.03,336.06,76.76z"/>
	<path id="XMLID_30_" style="fill:#EFA986;" d="M150.01,66.36c0,0,1.83,1,4.01,5.86c2.18,4.86,3.09,7.74,0.61,9.13
		c-2.48,1.39-16.75,1.29-21.8,0.69c-5.05-0.59-5.35-7.62-5.53-9.44c-0.33-3.35,1.76-5.43,5.33-6.22
		C136.2,65.58,148.52,65.65,150.01,66.36z"/>
	<path id="XMLID_29_" style="fill:#EFA986;" d="M291.11,123.17c-15.04-9.21-37.18-14.07-37.18-14.07s26.97,40.88,30.73,45.42
		c3.76,4.54,15.84,16.25,21.73,19.4c5.88,3.16,26.41,12.99,37.25,14.46c20.41,2.77,12.24-83.08,12.24-83.08l-18.82-1.03
		c-1.56,16.98-4.07,28.82-6.45,37.93c-1.66,6.36-8.98,1.55-13.36-1.47C317.24,140.75,300.82,129.11,291.11,123.17z"/>
	<path id="XMLID_28_" style="fill:#EFA986;" d="M263.38,257.46c0,0,5.78,4.11,13.07,6.49c7.29,2.38,27.42,14.3,33.66,18.01
		c6.25,3.72,37.02,14.87,40.59,25.42c3.57,10.55-0.74,24.68,0,29.73c0.74,5.05,1.64,24.68-0.74,36.28
		c-2.38,11.6-15.76,74.93-15.76,74.93s-8.03,1.93-23.94-0.89c0,0,4.76-37.02,1.78-52.78c-2.97-15.76,0.45-40.59,2.23-49.8
		c1.78-9.22,3.37-15.46-5.45-15.76c-8.82-0.3-42.12-3.27-61.6-15.46c-19.47-12.19-19.92-11.6-28.25-11.6
		c-8.32,0-29.04-65.36-29.04-65.36S241.97,239.02,263.38,257.46z"/>
	<path id="XMLID_27_" style="fill:#EA4748;" d="M314.36,284.1L314.36,284.1c0,0-14.81-6.64-26.11,17.05
		c-5.7,11.96-1.12,25.6-1.12,25.6c-13.04-2.17-28.75-6.12-39.91-13.11c-19.47-12.19-19.92-11.6-28.25-11.6
		c-8.32,0-30.58-66.08-30.58-66.08s53.59,1.47,75,19.9C273.55,258.92,287.87,265.05,314.36,284.1z"/>
	<path id="XMLID_26_" style="fill:#EFA986;" d="M256.67,43.07c0,0,29.24-11.82,27.44,26.41c-1.8,38.23-9.28,42.28-28.2,36.94
		c-18.92-5.34-20.24-28.46-22.71-40.07C230.73,54.75,247.26,44.73,256.67,43.07z"/>
	<path id="XMLID_25_" style="fill:#173342;" d="M237.2,85.31c0,0-0.08-10.21,4.17-11.15c4.25-0.94,6.43,4.96,6.43,4.96l3.42-0.18
		c0,0-3.06-10.35,0.99-12.72c4.05-2.37,28.27-0.29,31.31-3.77c3.04-3.48-1.37-24.18-7.98-26.21c-6.61-2.03-24.66-6.15-36.12,4.06
		c0,0-9.97,0.19-10.37,8.31C228.65,56.72,233.74,79.78,237.2,85.31z"/>
	<path id="XMLID_24_" style="fill:#EFA986;" d="M246.17,69.82c-1.27-3.37-8.45-2.94-7.71,2.4c0.73,5.34,6.66,13.57,9.05,12.02
		C249.88,82.7,247.92,74.47,246.17,69.82z"/>
	<path id="XMLID_23_" style="fill:#EA4748;" d="M281.86,122.4c0,0,7.76-1.33,10.54,28.36c0.84,8.95-0.75,40.45-1.73,45.42
		c-2.81,14.3-16.17,33.69-19.85,41.35c-3.68,7.66-12.74,29.16-12.24,42.68c0,0-59.06-18.66-72.63-35.98c0,0,7.02-23.67,9.15-29.79
		c2.13-6.12,3.04-26.79,0.39-37.51c-2.65-10.73-1.58-32.96-1.08-46.16c0.19-4.88,5.29-12.41,12.47-15.78
		c12.26-5.75,29.33-8.51,29.33-8.51L281.86,122.4z"/>
	<path id="XMLID_22_" style="fill:#EFA986;" d="M267.32,117.97c0,0-13.82,1.78-31.12-11.49c0,0,2.69-17.18,1.69-25.96
		c-1-8.78,30.23,25.15,30.23,25.15s-0.17,1.33-0.35,3.16c-0.12,1.25-0.26,2.73-0.35,4.18C267.29,114.88,267.23,116.72,267.32,117.97
		z"/>
	<path id="XMLID_21_" style="fill:#EDDAD3;" d="M310.36,446.54c0,0,5.64,0.6,10.2,0c4.56-0.6,8.23-5.75,15.56-2.58
		c7.33,3.17,12.19,12.59,17.94,13.88c5.75,1.29,20.12,7.33,18.83,15.16c-1.29,7.83-17.15,11-31.91,5.35
		c-14.77-5.65-24.48-7.33-32.71-8.13c-8.23-0.79-2.97-12.79-1.19-16.85C308.87,449.32,310.36,446.54,310.36,446.54z"/>
	<path id="XMLID_20_" style="fill:#EFA986;" d="M212.18,254.73c0,0-7.55,13.21-0.26,15.59c7.28,2.38,10.4,10.28,16.64,14
		c6.25,3.72,28.2,19.65,31.77,30.21c3.57,10.56-0.74,24.68,0,29.73c0.74,5.05,1.64,24.68-0.74,36.28
		c-2.38,11.6-15.76,74.93-15.76,74.93s-8.03,1.93-23.94-0.89c0,0,4.76-37.02,1.78-52.78c-2.97-15.76,0.45-40.59,2.23-49.8
		c1.78-9.22,1.99-15.51-6.83-15.81c-8.82-0.3-27.93-3.85-44.01-18.31c-8.46-7.61,2.78-41.19,5.04-48.82
		c2.36-7.98,12.43-37.77,12.43-37.77S190.77,236.29,212.18,254.73z"/>
	<path id="XMLID_19_" style="fill:#A77861;" d="M267.43,112.86c-12.57-1.71-20.03-12.86-20.26-13.2c9.71,8.95,20.65,8.66,20.65,8.66
		C267.71,109.56,267.53,111.41,267.43,112.86z"/>
	<path id="XMLID_18_" style="fill:#EDDAD3;" d="M227.79,448.49c0,0,6.92-3.14,11.53-2.98c4.61,0.16,5,3.18,6.15,4.9
		c1.15,1.72,11.14,18,14.11,20.96c2.96,2.97,13.51,6.09,12.02,13.51c-1.48,7.41-14.82,10.38-31.3,8.24
		c-16.47-2.14-17.07-16.29-19.71-19.75c-2.64-3.46-1.6-26.47,1.04-28.03C224.28,443.77,227.79,448.49,227.79,448.49z"/>
	<path id="XMLID_17_" style="fill:#EA4748;" d="M245.41,296.83c0,0-36.08-13.34-37.06,38.32c0,0-40.14-6.06-40.21-27.06
		c-0.07-21,3.82-32.82,23.01-81.19C210.35,178.53,245.41,296.83,245.41,296.83z"/>
	<path id="XMLID_16_" style="fill:#EFA986;" d="M198.48,120.8c0,0-5.68,5.97-8.12,8.72c-2.44,2.75-9.87,8.6-13.98,12
		c-4.1,3.4-13.49,12.78-15.15,6.43c-2.38-9.11-5.12-30.29-5.12-48.02l-19.13,1.49c0,0-10.02,100.62,10.39,97.85
		c10.84-1.47,30.4-9.18,36.09-12.68c10.67-6.58,22.08-18.61,25.84-23.15c3.76-4.54,17.06-34.29,17.06-34.29
		S215.9,102.53,198.48,120.8z"/>
	<path id="XMLID_15_" style="fill:#EFA986;" d="M194.14,166.89c0,0,0.79,14.69,1.96,19.39c1.17,4.7,4.63,18.31,18.71,14.91
		c8.52-2.06,25.18-26.51,11.55-72.06c0,0-25.84,17.9-31.66,34.58C194.7,163.71,194.05,166.1,194.14,166.89z"/>
	<path id="XMLID_14_" style="fill:#EA4748;" d="M267.43,112.86c0,0,15.47,2.85,19.19,13.44c3.72,10.59-19.3-8.33-19.3-8.33
		L267.43,112.86z"/>
	<path id="XMLID_13_" style="fill:#335D80;" d="M77.4,0H65.11c0.27,0.5,0.53,0.96,0.79,1.39C38.87,8.02,18.5,37.54,18.5,72.96
		c0,35.37,20.32,64.85,47.28,71.54c-0.44,0.81-0.67,1.42-0.67,1.42H77.4c32.53,0,58.9-32.67,58.9-72.96
		C136.29,32.67,109.92,0,77.4,0z"/>
	<ellipse id="XMLID_12_" style="fill:#4175A1;" cx="65.11" cy="72.96" rx="58.9" ry="72.96"/>
	<path id="XMLID_11_" style="fill:#335D80;" d="M77.4,0H65.11c0.27,0.5,0.53,0.96,0.79,1.39C38.87,8.02,18.5,37.54,18.5,72.96
		c0,35.37,20.32,64.85,47.28,71.54c-0.44,0.81-0.67,1.42-0.67,1.42H77.4c32.53,0,58.9-32.67,58.9-72.96
		C136.29,32.67,109.92,0,77.4,0z"/>
	<ellipse id="XMLID_10_" style="fill:#4175A1;" cx="65.11" cy="72.96" rx="58.9" ry="72.96"/>
	<path id="XMLID_9_" style="fill:#335D80;" d="M63.94,13.79h-9.97c0.22,0.41,0.43,0.78,0.64,1.13
		C32.7,20.29,16.18,44.23,16.18,72.96c0,28.68,16.48,52.6,38.34,58.02c-0.36,0.66-0.54,1.15-0.54,1.15h9.97
		c26.38,0,47.77-26.49,47.77-59.17C111.71,40.28,90.33,13.79,63.94,13.79z"/>
	<ellipse id="XMLID_8_" style="fill:#4175A1;" cx="53.98" cy="72.96" rx="47.77" ry="59.17"/>
	<path id="XMLID_7_" style="fill:#335D80;" d="M63.94,13.79h-9.97c0.22,0.41,0.43,0.78,0.64,1.13
		C32.7,20.29,16.18,44.23,16.18,72.96c0,28.68,16.48,52.6,38.34,58.02c-0.36,0.66-0.54,1.15-0.54,1.15h9.97
		c26.38,0,47.77-26.49,47.77-59.17C111.71,40.28,90.33,13.79,63.94,13.79z"/>
	<ellipse id="XMLID_6_" style="fill:#4175A1;" cx="53.98" cy="72.96" rx="47.77" ry="59.17"/>
	<path id="XMLID_5_" style="fill:#335D80;" d="M49.56,22.17H41c0.19,0.35,0.37,0.67,0.55,0.97c-18.81,4.61-33,25.16-33,49.82
		c0,24.62,14.14,45.15,32.91,49.8c-0.31,0.56-0.47,0.99-0.47,0.99h8.56c22.65,0,41-22.74,41-50.79
		C90.56,44.91,72.21,22.17,49.56,22.17z"/>
	<ellipse id="XMLID_4_" style="fill:#4175A1;" cx="41" cy="72.96" rx="41" ry="50.79"/>
	<path id="XMLID_3_" style="fill:#EA4748;" d="M276.41,116.06c0,0,14.76,3.48,19.91,38.75c5.15,35.27-15.06,58.05-15.06,58.05
		L276.41,116.06z"/>
</g>
</svg>
